<svg width="320" height="320" xmlns="http://www.w3.org/2000/svg"><path fill="#f7617a" d="M153.773 229.419c3.67-17.91 16.55-31.05 33.24-37.67 24.15-9.58 47.61-19.7 58.8-44.84-3.97-7.92-9.14-15.46-13.05-25.96-5.77-15.48-6.38-30.66-4.83-45.78.53-5.17.92-10.68.46-16.03-.62-7.29-2.8-14.28-8.29-19.71-7.62-8.09-19.36-11.79-30.81-8.6-12.88 3.59-21.04 16.28-29.58 25.72-.48.53-.96 1.05-1.44 1.57-8.66 9.35-19.45 16.93-30.71 22.06-14.43 6.57-27.02 10.21-44.31 14.19-15.83 3.65-32.14 6.81-45.84 16.01-4.03 2.71-8.99 6.35-12.46 9.74-30.28 29.58-29.16 85.31 6.84 110.12 17.43 12.01 35.22 12.32 56.85 26.72 15.86 10.56 21.79 21.02 35.75 27.52 12.59 5.87 27.41 5.97 39.84-.42 3.23-1.66 6.05-3.69 8.56-6-.74-.54-1.47-1.1-2.19-1.69-13.94-11.35-20.43-29.34-16.82-46.96"/><path fill="#00b5ef" d="M315.713 171.359c-1.32-12.57-6.16-33.39-15.79-47.56-.17-.25-.34-.49-.51-.73-6.72-9.56-15.71-15.86-27.39-14.09-9.02 1.37-16.2 7.98-19.25 16.08-1.33 3.52-2.25 7.17-3.23 10.8-.87 3.23-1.79 6.45-3.09 9.56-.21.5-.43.99-.65 1.48 1.41 2.82 2.67 5.68 3.67 8.75 10.47 32.2-12.16 48.47-32.57 63.5-12.99 9.57-22.23 23.13-29.4 37.48-3.97 7.93-8.35 15.58-14.73 21.44 24.74 18.11 64.35 14.87 94.51-1.48 11.53-6.25 23.36-18.25 30.8-28.46 16.4-22.5 20.54-49.09 17.63-76.78"/><path fill="#f9b74b" d="M253.853 54.409c-1.34 0-2.69.17-4 .45-.41.09-.82.19-1.23.31-6.97 1.95-10.99 8.72-12.73 15.42-2 7.7-1.77 15.86-1.28 23.73.21 3.35.58 6.69 1.1 10.01 1.81 11.45 5.92 23.74 13.44 33.02.14-.49.27-.99.41-1.48.98-3.63 1.9-7.27 3.23-10.8 3.05-8.1 10.23-14.71 19.25-16.08 1.33-.2 2.62-.3 3.87-.3 9.81 0 17.55 5.91 23.51 14.38.17.24.34.48.51.73 1.3 1.91 2.51 3.94 3.64 6.06.73-2.8 1.06-5.71.98-8.61-.12-4.43-1.26-8.59-3.05-12.46-2.16-4.67-5.27-8.94-8.7-12.82-6.56-7.42-13.32-15.1-18.32-23.69-.37-.63-.72-1.26-1.08-1.89-3.16-5.65-7.13-11.9-13.26-14.65a15.24 15.24 0 0 0-5.23-1.3c-.35-.02-.7-.03-1.05-.03"/><path fill="#008246" d="M275.903 108.689c-1.26 0-2.55.1-3.87.3-9.02 1.37-16.2 7.98-19.25 16.08-1.33 3.52-2.25 7.17-3.23 10.8-.13.49-.27.99-.41 1.48 1.85 2.28 3.9 4.38 6.18 6.24.35.29.71.56 1.08.84 5.66 4.21 12.55 6.4 19.38 6.4 7.62 0 15.16-2.74 20.8-8.47 3.42-3.47 5.76-7.83 6.99-12.5a65.658 65.658 0 0 0-3.64-6.06c-.17-.25-.34-.49-.51-.73-5.96-8.47-13.7-14.38-23.51-14.38"/><path fill="#f27875" d="M245.803 146.909c-11.2 25.14-34.65 35.26-58.8 44.84-16.69 6.62-29.57 19.76-33.24 37.67-.66 3.24-.98 6.48-.98 9.7 0 14.3 6.43 28 17.8 37.26.71.58 1.45 1.14 2.19 1.69 6.38-5.86 10.76-13.5 14.73-21.44 7.18-14.35 16.41-27.91 29.4-37.48 16.84-12.4 35.2-25.65 35.21-47.99 0-4.73-.82-9.88-2.65-15.5-1-3.07-2.26-5.93-3.67-8.75"/><path fill="#2f5bb2" d="M187.503 256.629c7.18-14.35 16.41-27.91 29.4-37.48 20.41-15.03 43.04-31.3 32.57-63.5-1-3.07-2.26-5.93-3.67-8.75-11.2 25.14-34.65 35.26-58.8 44.84-16.69 6.62-29.57 19.76-33.24 37.67-3.61 17.62 2.88 35.61 16.82 46.96.71.58 1.45 1.14 2.19 1.69 6.38-5.86 10.76-13.5 14.73-21.44v.01z"/></svg>