<svg width="147" height="147" viewBox="0 0 147 147" fill="none" xmlns="http://www.w3.org/2000/svg">
<g clip-path="url(#clip0_1047_65)">
<path d="M70.6559 103.464C72.1251 96.2492 77.2843 90.9536 83.9703 88.287C93.646 84.4276 103.042 80.352 107.527 70.2242C105.937 67.0327 103.867 63.9971 102.298 59.7649C99.9864 53.5292 99.742 47.4129 100.363 41.3226C100.576 39.2388 100.73 37.0196 100.548 34.865C100.3 31.9279 99.4277 29.1117 97.227 26.9257C94.1741 23.6651 89.4719 22.1747 84.8843 23.4593C79.7233 24.906 76.4542 30.018 73.0337 33.8194C72.8425 34.0326 72.6501 34.2439 72.4565 34.454C68.9864 38.2216 64.6629 41.2745 60.1531 43.3404C54.3739 45.9878 49.3293 47.453 42.4019 49.058C36.0603 50.5274 29.5257 51.7997 24.0399 55.5088C22.4249 56.5999 20.4381 58.0663 19.0467 59.4341C6.91545 71.3517 7.36453 93.8032 21.7878 103.797C28.769 108.635 35.8973 108.759 44.5609 114.561C50.9167 118.817 53.2919 123.028 58.8843 125.648C63.9265 128.011 69.8662 128.053 74.8422 125.479C76.135 124.811 77.2647 123.993 78.2707 123.064C77.9736 122.845 77.6807 122.619 77.3946 122.384C71.8114 117.812 69.2107 110.564 70.6559 103.464Z" fill="#F55379"/>
<path d="M135.531 80.0785C135.001 75.0127 133.064 66.6255 129.206 60.9202C129.14 60.821 129.071 60.723 129.003 60.6257C126.31 56.7755 122.708 54.2371 118.033 54.9506C114.418 55.5026 111.544 58.1643 110.32 61.4285C109.788 62.8486 109.419 64.3168 109.026 65.7789C108.677 67.0802 108.308 68.3771 107.79 69.6297C107.706 69.833 107.616 70.0289 107.528 70.2279C108.093 71.3628 108.599 72.5174 108.998 73.7521C113.192 86.7246 104.128 93.2776 95.9511 99.3323C90.7466 103.187 87.0467 108.649 84.1715 114.431C82.5823 117.627 80.8264 120.708 78.2722 123.068C88.1814 130.364 104.051 129.058 116.131 122.474C120.749 119.956 125.489 115.122 128.469 111.009C135.039 101.943 136.7 91.2327 135.531 80.0785Z" fill="#3F83F0"/>
<path d="M110.738 32.932C110.2 32.932 109.661 32.9985 109.135 33.1137C108.97 33.1501 108.807 33.1914 108.644 33.2376C105.85 34.025 104.242 36.7489 103.543 39.4493C102.74 42.5515 102.834 45.8379 103.029 49.0109C103.112 50.3608 103.26 51.7064 103.47 53.0422C104.193 57.6538 105.841 62.6062 108.852 66.3442C108.907 66.1458 108.961 65.9462 109.015 65.7466C109.408 64.2852 109.777 62.8163 110.31 61.3962C111.533 58.132 114.406 55.4709 118.021 54.9189C118.552 54.8376 119.069 54.7987 119.573 54.7987C123.504 54.7987 126.604 57.1807 128.992 60.5934C129.06 60.6913 129.129 60.7887 129.195 60.8879C129.716 61.658 130.201 62.4762 130.653 63.3289C130.947 62.2021 131.08 61.0302 131.047 59.8626C130.998 58.0765 130.543 56.4037 129.825 54.8419C128.959 52.9602 127.713 51.2394 126.338 49.6769C123.709 46.6875 121.002 43.5946 118.998 40.1332C118.852 39.8794 118.708 39.6255 118.566 39.3698C117.302 37.0914 115.712 34.5739 113.253 33.4692C112.592 33.1717 111.882 32.9942 111.159 32.9455C111.019 32.9363 110.879 32.932 110.738 32.932Z" fill="#F9D54B"/>
<path d="M119.587 54.8061C119.083 54.8061 118.565 54.8449 118.035 54.9263C114.42 55.4783 111.546 58.1393 110.323 61.4035C109.79 62.8237 109.421 64.2925 109.028 65.7546C108.975 65.9536 108.921 66.1532 108.866 66.3522C109.606 67.2709 110.429 68.1168 111.341 68.866C111.482 68.9818 111.627 69.0934 111.773 69.203C114.041 70.8974 116.803 71.7815 119.537 71.7815C122.59 71.7815 125.608 70.6793 127.868 68.3713C129.238 66.9721 130.176 65.2173 130.667 63.3369C130.215 62.4836 129.729 61.6654 129.209 60.8952C129.142 60.7967 129.074 60.6987 129.006 60.6014C126.618 57.1887 123.517 54.8061 119.587 54.8061Z" fill="#50677F"/>
<path d="M107.519 70.2247C103.034 80.3525 93.6384 84.4275 83.9627 88.2875C77.2767 90.9541 72.1175 96.2496 70.6483 103.464C70.3831 104.768 70.2538 106.076 70.2544 107.372C70.2581 113.135 72.8282 118.652 77.3864 122.385C77.6731 122.62 77.9659 122.846 78.2631 123.064C80.8179 120.705 82.5731 117.623 84.163 114.428C87.0382 108.646 90.7381 103.183 95.9426 99.329C102.69 94.3322 110.042 88.9966 110.048 79.9951C110.05 78.0876 109.723 76.0162 108.989 73.7489C108.59 72.5135 108.084 71.3595 107.519 70.2247Z" fill="#F27875"/>
<path d="M84.1628 114.427C87.038 108.645 90.7372 103.183 95.9424 99.329C104.12 93.2738 113.183 86.7207 108.989 73.7483C108.589 72.5136 108.085 71.3589 107.519 70.224C103.034 80.3518 93.6382 84.4275 83.9624 88.2869C77.2765 90.9534 72.1173 96.249 70.6481 103.464C69.2022 110.563 71.8036 117.811 77.3861 122.384C77.6729 122.619 77.9657 122.845 78.2628 123.064C80.8176 120.704 82.5729 117.623 84.1628 114.427Z" fill="#421DD8"/>
</g>
<defs>
<clipPath id="clip0_1047_65">
<rect width="147" height="147" fill="white"/>
</clipPath>
</defs>
</svg>
